HIERARCHY
ROOT Hips
{
  OFFSET -375.396 93.0049 534.666
  CHANNELS 6 Xposition Yposition Zposition Zrotation Xrotation Yrotation
  JOINT Spine
  {
    OFFSET 0 8 -1.7052e-05
    CHANNELS 6 Xposition Yposition Zposition Zrotation Xrotation Yrotation
    JOINT Spine1
    {
      OFFSET 0 8.00001 0
      CHANNELS 6 Xposition Yposition Zposition Zrotation Xrotation Yrotation
      JOINT Spine2
      {
        OFFSET 0 8 4.65747e-05
        CHANNELS 6 Xposition Yposition Zposition Zrotation Xrotation Yrotation
        JOINT Spine3
        {
          OFFSET 0 8 0
          CHANNELS 6 Xposition Yposition Zposition Zrotation Xrotation Yrotation
          JOINT Neck
          {
            OFFSET -0.000149348 17 4.56811e-05
            CHANNELS 6 Xposition Yposition Zposition Zrotation Xrotation Yrotation
            JOINT Head
            {
              OFFSET 1.50884e-05 10.8 1.45785e-05
              CHANNELS 6 Xposition Yposition Zposition Zrotation Xrotation Yrotation
              End Site
              {
                OFFSET 0 20.25 0
              }
            }
          }
          JOINT LeftShoulder
          {
            OFFSET 4.99988 17 7.67672e-05
            CHANNELS 6 Xposition Yposition Zposition Zrotation Xrotation Yrotation
            JOINT LeftShoulder2
            {
              OFFSET 6.45 0 0
              CHANNELS 6 Xposition Yposition Zposition Zrotation Xrotation Yrotation
              JOINT LeftArm
              {
                OFFSET 6.44995 0.000825099 0.00161695
                CHANNELS 6 Xposition Yposition Zposition Zrotation Xrotation Yrotation
                JOINT LeftForeArm
                {
                  OFFSET -1.48273e-05 -32.4 -1.99996
                  CHANNELS 6 Xposition Yposition Zposition Zrotation Xrotation Yrotation
                  JOINT LeftHand
                  {
                    OFFSET -2.47442e-05 -25.65 1.99996
                    CHANNELS 6 Xposition Yposition Zposition Zrotation Xrotation Yrotation
                    JOINT LeftHandThumb1
                    {
                      OFFSET -0.499991 -1.49999 2.65
                      CHANNELS 6 Xposition Yposition Zposition Zrotation Xrotation Yrotation
                      JOINT LeftHandThumb2
                      {
                        OFFSET 0 -3.8 3.69999
                        CHANNELS 6 Xposition Yposition Zposition Zrotation Xrotation Yrotation
                        JOINT LeftHandThumb3
                        {
                          OFFSET -1.24672e-05 -3.00002 2.70001
                          CHANNELS 6 Xposition Yposition Zposition Zrotation Xrotation Yrotation
                          End Site
                          {
                            OFFSET 0 -2.3 1.8
                          }
                        }
                      }
                    }
                    JOINT LeftHandIndex
                    {
                      OFFSET 1.22711e-05 -1.90001 1.60001
                      CHANNELS 6 Xposition Yposition Zposition Zrotation Xrotation Yrotation
                      JOINT LeftHandIndex1
                      {
                        OFFSET 0 -8.3 1.90002
                        CHANNELS 6 Xposition Yposition Zposition Zrotation Xrotation Yrotation
                        JOINT LeftHandIndex2
                        {
                          OFFSET 0 -4.5 0
                          CHANNELS 6 Xposition Yposition Zposition Zrotation Xrotation Yrotation
                          JOINT LeftHandIndex3
                          {
                            OFFSET -1.46379e-05 -3.39995 -1.74338e-05
                            CHANNELS 6 Xposition Yposition Zposition Zrotation Xrotation Yrotation
                            End Site
                            {
                              OFFSET 1.36703e-05 -2.59998 1.78503e-05
                            }
                          }
                        }
                      }
                    }
                    JOINT LeftHandMiddle
                    {
                      OFFSET -0.249993 -2.20001 0.400024
                      CHANNELS 6 Xposition Yposition Zposition Zrotation Xrotation Yrotation
                      JOINT LeftHandMiddle1
                      {
                        OFFSET 0 -8.29999 0.999976
                        CHANNELS 6 Xposition Yposition Zposition Zrotation Xrotation Yrotation
                        JOINT LeftHandMiddle2
                        {
                          OFFSET 0 -4.64999 1.29898e-05
                          CHANNELS 6 Xposition Yposition Zposition Zrotation Xrotation Yrotation
                          JOINT LeftHandMiddle3
                          {
                            OFFSET 0 -3.30002 -1.91875e-05
                            CHANNELS 6 Xposition Yposition Zposition Zrotation Xrotation Yrotation
                            End Site
                            {
                              OFFSET 0 -2.69999 0
                            }
                          }
                        }
                      }
                    }
                    JOINT LeftHandRing
                    {
                      OFFSET -0.499986 -2.15001 -0.799999
                      CHANNELS 6 Xposition Yposition Zposition Zrotation Xrotation Yrotation
                      JOINT LeftHandRing1
                      {
                        OFFSET 0 -7.75001 -0.200043
                        CHANNELS 6 Xposition Yposition Zposition Zrotation Xrotation Yrotation
                        JOINT LeftHandRing2
                        {
                          OFFSET 0 -3.79998 5.46468e-05
                          CHANNELS 6 Xposition Yposition Zposition Zrotation Xrotation Yrotation
                          JOINT LeftHandRing3
                          {
                            OFFSET 0 -3.40001 -4.10966e-05
                            CHANNELS 6 Xposition Yposition Zposition Zrotation Xrotation Yrotation
                            End Site
                            {
                              OFFSET -1.05278e-05 -2.59999 1.15451e-05
                            }
                          }
                        }
                      }
                    }
                    JOINT LeftHandPinky
                    {
                      OFFSET -0.749985 -1.75001 -1.85001
                      CHANNELS 6 Xposition Yposition Zposition Zrotation Xrotation Yrotation
                      JOINT LeftHandPinky1
                      {
                        OFFSET 0 -7.14999 -0.999996
                        CHANNELS 6 Xposition Yposition Zposition Zrotation Xrotation Yrotation
                        JOINT LeftHandPinky2
                        {
                          OFFSET 1.45672e-05 -3.00002 -2.97348e-05
                          CHANNELS 6 Xposition Yposition Zposition Zrotation Xrotation Yrotation
                          JOINT LeftHandPinky3
                          {
                            OFFSET -1.22523e-05 -2.34998 1.75191e-05
                            CHANNELS 6 Xposition Yposition Zposition Zrotation Xrotation Yrotation
                            End Site
                            {
                              OFFSET 0 -2.1 2.73622e-05
                            }
                          }
                        }
                      }
                    }
                  }
                }
              }
            }
          }
          JOINT RightShoulder
          {
            OFFSET -5.00018 17 1.54942e-05
            CHANNELS 6 Xposition Yposition Zposition Zrotation Xrotation Yrotation
            JOINT RightShoulder2
            {
              OFFSET -6.45 0 0
              CHANNELS 6 Xposition Yposition Zposition Zrotation Xrotation Yrotation
              JOINT RightArm
              {
                OFFSET -6.44992 -0.000462565 0.000274686
                CHANNELS 6 Xposition Yposition Zposition Zrotation Xrotation Yrotation
                JOINT RightForeArm
                {
                  OFFSET 0 -32.4001 -1.99999
                  CHANNELS 6 Xposition Yposition Zposition Zrotation Xrotation Yrotation
                  JOINT RightHand
                  {
                    OFFSET -2.19987e-05 -25.65 2.00002
                    CHANNELS 6 Xposition Yposition Zposition Zrotation Xrotation Yrotation
                    JOINT RightHandThumb1
                    {
                      OFFSET 0.500004 -1.5 2.65002
                      CHANNELS 6 Xposition Yposition Zposition Zrotation Xrotation Yrotation
                      JOINT RightHandThumb2
                      {
                        OFFSET 0 -3.79998 3.70007
                        CHANNELS 6 Xposition Yposition Zposition Zrotation Xrotation Yrotation
                        JOINT RightHandThumb3
                        {
                          OFFSET 0 -3 2.7
                          CHANNELS 6 Xposition Yposition Zposition Zrotation Xrotation Yrotation
                          End Site
                          {
                            OFFSET 0 -2.30001 1.80001
                          }
                        }
                      }
                    }
                    JOINT RightHandIndex
                    {
                      OFFSET 0 -1.9 1.60002
                      CHANNELS 6 Xposition Yposition Zposition Zrotation Xrotation Yrotation
                      JOINT RightHandIndex1
                      {
                        OFFSET -1.06409e-05 -8.30001 1.90004
                        CHANNELS 6 Xposition Yposition Zposition Zrotation Xrotation Yrotation
                        JOINT RightHandIndex2
                        {
                          OFFSET 0 -4.5 0
                          CHANNELS 6 Xposition Yposition Zposition Zrotation Xrotation Yrotation
                          JOINT RightHandIndex3
                          {
                            OFFSET 3.07905e-05 -3.39999 -2.63762e-05
                            CHANNELS 6 Xposition Yposition Zposition Zrotation Xrotation Yrotation
                            End Site
                            {
                              OFFSET -2.11528e-05 -2.60001 0
                            }
                          }
                        }
                      }
                    }
                    JOINT RightHandMiddle
                    {
                      OFFSET 0.249992 -2.2 0.400048
                      CHANNELS 6 Xposition Yposition Zposition Zrotation Xrotation Yrotation
                      JOINT RightHandMiddle1
                      {
                        OFFSET -1.0766e-05 -8.30001 1.00002
                        CHANNELS 6 Xposition Yposition Zposition Zrotation Xrotation Yrotation
                        JOINT RightHandMiddle2
                        {
                          OFFSET 1.61111e-05 -4.64997 0
                          CHANNELS 6 Xposition Yposition Zposition Zrotation Xrotation Yrotation
                          JOINT RightHandMiddle3
                          {
                            OFFSET -2.62671e-05 -3.30001 -3.44967e-05
                            CHANNELS 6 Xposition Yposition Zposition Zrotation Xrotation Yrotation
                            End Site
                            {
                              OFFSET 0 -2.70001 0
                            }
                          }
                        }
                      }
                    }
                    JOINT RightHandRing
                    {
                      OFFSET 0.499996 -2.15 -0.799976
                      CHANNELS 6 Xposition Yposition Zposition Zrotation Xrotation Yrotation
                      JOINT RightHandRing1
                      {
                        OFFSET 0 -7.74999 -0.199974
                        CHANNELS 6 Xposition Yposition Zposition Zrotation Xrotation Yrotation
                        JOINT RightHandRing2
                        {
                          OFFSET 1.03523e-05 -3.8 -2.58797e-05
                          CHANNELS 6 Xposition Yposition Zposition Zrotation Xrotation Yrotation
                          JOINT RightHandRing3
                          {
                            OFFSET 0 -3.39998 0
                            CHANNELS 6 Xposition Yposition Zposition Zrotation Xrotation Yrotation
                            End Site
                            {
                              OFFSET 0 -2.60002 0
                            }
                          }
                        }
                      }
                    }
                    JOINT RightHandPinky
                    {
                      OFFSET 0.749984 -1.74999 -1.84996
                      CHANNELS 6 Xposition Yposition Zposition Zrotation Xrotation Yrotation
                      JOINT RightHandPinky1
                      {
                        OFFSET 1.4974e-05 -7.15002 -1
                        CHANNELS 6 Xposition Yposition Zposition Zrotation Xrotation Yrotation
                        JOINT RightHandPinky2
                        {
                          OFFSET -1.35452e-05 -2.99999 1.6575e-05
                          CHANNELS 6 Xposition Yposition Zposition Zrotation Xrotation Yrotation
                          JOINT RightHandPinky3
                          {
                            OFFSET 0 -2.35001 -2.94329e-05
                            CHANNELS 6 Xposition Yposition Zposition Zrotation Xrotation Yrotation
                            End Site
                            {
                              OFFSET 0 -2.1 1.4282e-05
                            }
                          }
                        }
                      }
                    }
                  }
                }
              }
            }
          }
        }
      }
    }
  }
  JOINT LeftUpLeg
  {
    OFFSET 8.00001 0 1.07707e-05
    CHANNELS 6 Xposition Yposition Zposition Zrotation Xrotation Yrotation
    JOINT LeftLeg
    {
      OFFSET 0 -45 -0.999944
      CHANNELS 6 Xposition Yposition Zposition Zrotation Xrotation Yrotation
      JOINT LeftFoot
      {
        OFFSET -1.5034e-05 -41 -2.00002
        CHANNELS 6 Xposition Yposition Zposition Zrotation Xrotation Yrotation
        JOINT LeftToeBase
        {
          OFFSET 0 -7.49998 12.5
          CHANNELS 6 Xposition Yposition Zposition Zrotation Xrotation Yrotation
          JOINT LeftFootToe
          {
            OFFSET 0 0 4
            CHANNELS 6 Xposition Yposition Zposition Zrotation Xrotation Yrotation
            End Site
            {
              OFFSET 0 0 0
            }
          }
        }
      }
    }
  }
  JOINT RightUpLeg
  {
    OFFSET -8.00001 0 -1.07707e-05
    CHANNELS 6 Xposition Yposition Zposition Zrotation Xrotation Yrotation
    JOINT RightLeg
    {
      OFFSET 0 -45 -0.999987
      CHANNELS 6 Xposition Yposition Zposition Zrotation Xrotation Yrotation
      JOINT RightFoot
      {
        OFFSET -2.5213e-05 -41.0001 -2.00004
        CHANNELS 6 Xposition Yposition Zposition Zrotation Xrotation Yrotation
        JOINT RightToeBase
        {
          OFFSET -1.32692e-05 -7.5 12.5
          CHANNELS 6 Xposition Yposition Zposition Zrotation Xrotation Yrotation
          JOINT RightFootToe
          {
            OFFSET 0 0 4
            CHANNELS 6 Xposition Yposition Zposition Zrotation Xrotation Yrotation
            End Site
            {
              OFFSET 0 0 0
            }
          }
        }
      }
    }
  }
}
MOTION
Frames:	3
Frame Time:	0.0111111
-393.607 92.2407 519.07 0.250983 4.98335 -101.078 0 8 -5.68434e-14 9.79939 -0.742783 22.2203 0 8 0 1.80608 1.64858 17.606 5.68434e-14 8 0 -0.888882 -3.42567 -52.9251 0 8 -2.84217e-14 0.954562 0.747646 8.75404 0 17 0 3.83197 -1.20793 -6.94784 1.13687e-13 10.8 -5.68434e-14 -2.27743 4.23186 -16.3874 5 17 -5.68434e-14 -15.4021 -10.3924 3.49774 6.45 0 0 -1.26568 -1.30439 2.40441 6.45 5.68434e-14 0 12.5481 -35.0383 36.659 0 -32.4 -2 -41.9713 -33.0734 0.461297 0 -25.65 2 50.5705 23.591 -6.62833 -0.5 -1.5 2.65 -15.3873 -49.8317 0.0100299 2.84217e-14 -3.8 3.7 -0.162976 11.1104 0.0331089 -5.68434e-14 -3 2.7 -0.0232958 27.2226 0.0104721 0 -1.9 1.6 2.38542e-15 -3.97569e-15 -3.18055e-15 -5.68434e-14 -8.3 1.9 -0.0499601 -1.72596 0.00287964 -5.68434e-14 -4.5 -1.13687e-13 -0.000248257 -0.00478644 -0.0217467 5.68434e-14 -3.4 1.13687e-13 1.55242e-05 -0.0058218 -0.0203085 -0.25 -2.2 0.4 2.38542e-15 -3.97569e-15 -3.18055e-15 -5.68434e-14 -8.3 1 -1.8123 4.76461 0.32844 0 -4.65 -1.13687e-13 0.0283865 0.00229493 -0.00629747 5.68434e-14 -3.3 -1.13687e-13 0.0264658 -0.00226868 -0.0060971 -0.5 -2.15 -0.8 2.38542e-15 -3.97569e-15 -3.18055e-15 5.68434e-14 -7.75 -0.2 -5.04586 14.1626 1.35201 -1.13687e-13 -3.8 0 -3.36029 -0.00732182 0.138133 5.68434e-14 -3.4 0 -2.81371 -0.0176003 0.111401 -0.75 -1.75 -1.85 2.38542e-15 -3.97569e-15 -3.18055e-15 5.68434e-14 -7.15 -1 -7.18382 21.2104 2.35591 0 -3 0 -41.1151 -0.24524 0.364214 2.84217e-14 -2.35 0 -29.2375 -0.259601 0.12255 -5 17 5.68434e-14 -8.85876 -5.83251 10.3184 -6.45 2.84217e-14 0 -2.74138 1.03905 -2.69327 -6.45 -2.84217e-14 0 -29.7656 -17.3545 -24.7781 0 -32.4 -2 53.1729 -61.7038 52.6373 0 -25.65 2 -27.9282 22.9059 25.5628 0.5 -1.5 2.65 17.4028 -26.2371 1.7111 1.13687e-13 -3.8 3.7 0.157567 34.8133 -0.163393 0 -3 2.7 0.0800891 10.8179 0.0219964 1.13687e-13 -1.9 1.6 1.25701e-06 1.83145e-07 -1.46836e-06 -5.68434e-14 -8.3 1.9 30.2891 10.16 -3.06494 0 -4.5 0 0.00015305 0.0289816 0.0113479 -5.68434e-14 -3.4 0 1.85369e-05 0.0282404 -0.0983856 0.25 -2.2 0.4 1.25701e-06 1.83145e-07 -1.46836e-06 0 -8.3 1 43.677 15.6666 -8.31621 5.68434e-14 -4.65 1.13687e-13 75.5499 0.00288722 -0.0231218 -2.84217e-14 -3.3 0 59.0032 -0.0313594 -0.0197641 0.5 -2.15 -0.8 1.25701e-06 1.83145e-07 -1.46836e-06 -5.68434e-14 -7.75 -0.2 69.0521 7.18755 -10.7466 -2.84217e-14 -3.8 -1.13687e-13 50.9339 -0.0049982 -0.0359142 -2.84217e-14 -3.4 0 35.1567 -0.017048 -0.0176476 0.75 -1.75 -1.85 1.25701e-06 1.83145e-07 -1.46836e-06 -5.68434e-14 -7.15 -1 84.5556 -0.720496 -10.7973 -2.84217e-14 -3 0 54.055 -0.00576447 -0.0442078 8.52651e-14 -2.35 0 37.3852 -0.023939 -0.0232458 8 2.84217e-14 0 9.47418 -24.4716 3.49729 1.13687e-13 -45 -1 -0.0207847 2.31443 3.2791 0 -41 -2 -2.87389 19.0569 -32.8294 0 -7.5 12.5 -9.3234e-09 -6.61901e-07 -2.56757e-10 1.13687e-13 -1.77636e-15 4 3.6172 -7.51904 16.3218 -8 0 -5.68434e-14 9.11606 -4.64664 -16.7235 -1.13687e-13 -45 -1 -0.00540767 6.55237 0.490165 0 -41 -2 -5.55936 -2.56426 -20.9568 0 -7.5 12.5 -7.95527e-16 -3.37915e-15 -3.18055e-15 -1.13687e-13 0 4 5.58904 -1.09612 16.2373 
-393.613 92.2386 519.063 0.250461 4.98766 -101.079 0 8 -5.68434e-14 9.79956 -0.748855 22.2206 0 8 0 1.79782 1.64872 17.6059 -1.13687e-13 8 0 -0.890942 -3.42548 -52.9252 0 8 -2.84217e-14 0.954261 0.748061 8.75415 0 17 -2.84217e-14 3.80094 -1.21764 -6.92892 -1.13687e-13 10.8 2.84217e-14 -2.36164 4.23684 -16.3376 5 17 0 -15.4335 -10.385 3.48308 6.45 0 0 -1.26419 -1.30461 2.41566 6.45 2.84217e-14 -5.68434e-14 12.6023 -35.1486 36.4592 5.68434e-14 -32.4 -2 -41.5382 -32.8021 0.662867 -5.68434e-14 -25.65 2 50.3051 24.1259 -6.60327 -0.5 -1.5 2.65 -15.3655 -49.8304 -0.00354603 5.68434e-14 -3.8 3.7 -0.162813 10.8445 0.0327961 0 -3 2.7 -0.0231064 26.7835 0.0104028 5.68434e-14 -1.9 1.6 6.95746e-15 1.39149e-14 3.18055e-15 0 -8.3 1.9 -0.0432635 -1.70666 0.00259156 0 -4.5 0 -0.000228452 -0.00448635 -0.0213955 0 -3.4 0 1.65138e-05 -0.00548949 -0.0199667 -0.25 -2.2 0.4 6.95746e-15 1.39149e-14 3.18055e-15 -5.68434e-14 -8.3 1 -2.17378 5.19283 0.38497 5.68434e-14 -4.65 1.13687e-13 0.0567891 0.00225078 -0.00685689 1.13687e-13 -3.3 0 0.0529134 -0.0016822 -0.00653514 -0.5 -2.15 -0.8 6.95746e-15 1.39149e-14 3.18055e-15 0 -7.75 -0.2 -6.07428 15.068 1.62366 -5.68434e-14 -3.8 1.13687e-13 -6.2998 -0.0281006 0.246298 1.13687e-13 -3.4 0 -5.0793 -0.0482608 0.188561 -0.75 -1.75 -1.85 6.95746e-15 1.39149e-14 3.18055e-15 0 -7.15 -1 -8.69353 22.4807 2.869 0 -3 0 -45.8494 -0.306509 0.349618 4.26326e-14 -2.35 0 -32.4502 -0.310574 0.0845764 -5 17 -2.84217e-14 -8.88412 -5.83613 10.2563 -6.45 1.42109e-14 0 -2.74101 1.04191 -2.67709 -6.45 0 0 -29.8776 -17.3995 -24.5456 0 -32.4 -2 53.6558 -62.1964 54.1014 0 -25.65 2 -29.0555 21.8356 28.6579 0.5 -1.5 2.65 17.1926 -27.0986 1.15137 5.68434e-14 -3.8 3.7 0.174218 35.9753 -0.156555 0 -3 2.7 0.0600416 10.4387 0.00830949 0 -1.9 1.6 1.25701e-06 1.83145e-07 -1.46836e-06 -5.68434e-14 -8.3 1.9 29.9504 9.96014 -2.96513 5.68434e-14 -4.5 0 0.000158091 0.0314144 0.0118519 -5.68434e-14 -3.4 0 2.12924e-05 0.0306227 -0.0985987 0.25 -2.2 0.4 1.25701e-06 1.83145e-07 -1.46836e-06 0 -8.3 1 43.2481 15.8213 -8.25855 0 -4.65 0 76.0944 -0.00093633 -0.0703302 -1.13687e-13 -3.3 0 59.8508 -0.0951147 -0.0500482 0.5 -2.15 -0.8 1.25701e-06 1.83145e-07 -1.46836e-06 0 -7.75 -0.2 68.3559 7.4445 -10.6824 2.84217e-14 -3.8 0 51.196 -0.00419281 -0.0535214 -2.84217e-14 -3.4 0 35.3339 -0.0233431 -0.027999 0.75 -1.75 -1.85 1.25701e-06 1.83145e-07 -1.46836e-06 -5.68434e-14 -7.15 -1 83.5601 -0.776391 -10.23 5.68434e-14 -3 -1.13687e-13 54.3904 -0.0124493 -0.0821807 2.84217e-14 -2.35 0 37.6403 -0.0452494 -0.0427444 8 0 -5.68434e-14 9.48206 -24.4636 3.48796 -1.13687e-13 -45 -1 -0.0207834 2.30934 3.27913 -1.13687e-13 -41 -2 -2.8806 19.0497 -32.832 0 -7.5 12.5 -9.3234e-09 -6.62021e-07 -2.5676e-10 0 0 4 3.62015 -7.50212 16.3192 -8 0 -5.68434e-14 9.12117 -4.64835 -16.7102 -1.13687e-13 -45 -1 -0.00572934 6.57352 0.49026 -1.13687e-13 -41 -2 -5.5629 -2.5799 -20.9682 -1.13687e-13 -7.5 12.5 -7.95381e-16 -3.37939e-15 3.18055e-15 0 1.73472e-18 4 5.59798 -1.08977 16.2373 
-393.618 92.2366 519.056 0.25036 4.99181 -101.081 0 8 -5.68434e-14 9.79756 -0.753377 22.2208 -1.13687e-13 8 -1.13687e-13 1.78957 1.64886 17.6058 0 8 0 -0.893457 -3.42528 -52.9254 0 8 0 0.953958 0.748478 8.75425 -1.13687e-13 17 2.84217e-14 3.77144 -1.22818 -6.90928 0 10.8 0 -2.44555 4.23645 -16.2861 5 17 2.84217e-14 -15.4539 -10.3817 3.46701 6.45 -5.68434e-14 0 -1.25919 -1.30472 2.42207 6.45 2.84217e-14 1.13687e-13 12.6227 -35.3 36.2504 0 -32.4 -2 -41.0218 -32.4947 0.897823 -5.68434e-14 -25.65 2 49.9975 24.5842 -6.51507 -0.5 -1.5 2.65 -15.3628 -49.832 -0.0300459 -2.84217e-14 -3.8 3.7 -0.162658 10.6082 0.0324606 -2.84217e-14 -3 2.7 -0.0228637 26.3649 0.0103968 0 -1.9 1.6 -1.19271e-15 1.78906e-15 -0 0 -8.3 1.9 -0.0455304 -1.45168 0.00352186 -5.68434e-14 -4.5 0 -0.000209278 -0.00418494 -0.0210063 0 -3.4 0 1.73884e-05 -0.00514776 -0.0195946 -0.25 -2.2 0.4 -1.19271e-15 1.78906e-15 -0 -1.13687e-13 -8.3 1 -2.72479 5.871 0.481083 0 -4.65 0 -6.97979e-05 0.00219648 -0.00138195 0 -3.3 0 1.79979e-05 -0.00111691 -0.00137563 -0.5 -2.15 -0.8 -1.19271e-15 1.78906e-15 -0 0 -7.75 -0.2 -7.4601 15.9622 1.9866 -1.13687e-13 -3.8 0 -10.3386 -0.0486116 0.335678 5.68434e-14 -3.4 0 -8.0463 -0.0800658 0.246856 -0.75 -1.75 -1.85 -1.19271e-15 1.78906e-15 -0 5.68434e-14 -7.15 -1 -11.0924 23.6958 3.6856 0 -3 0 -50.2533 -0.328543 0.318908 2.84217e-14 -2.35 0 -35.4952 -0.328126 0.0529979 -5 17 5.68434e-14 -8.9008 -5.83149 10.1918 -6.45 0 0 -2.74063 1.04455 -2.6625 -6.45 -2.84217e-14 -5.68434e-14 -29.9696 -17.4463 -24.3407 1.13687e-13 -32.4 -2 54.0859 -62.5123 55.3222 0 -25.65 2 -30.0605 20.5852 31.3598 0.5 -1.5 2.65 16.9469 -27.8138 0.526213 5.68434e-14 -3.8 3.7 0.197289 36.9943 -0.149806 0 -3 2.7 0.0434759 10.2391 -0.00538964 5.68434e-14 -1.9 1.6 1.25701e-06 1.83145e-07 -1.46836e-06 -5.68434e-14 -8.3 1.9 29.5931 9.68408 -2.84772 0 -4.5 0 0.000162457 0.0337304 0.0123965 0 -3.4 0 2.39857e-05 0.0329028 -0.0987918 0.25 -2.2 0.4 1.25701e-06 1.83145e-07 -1.46836e-06 -5.68434e-14 -8.3 1 42.6265 15.8537 -8.11898 5.68434e-14 -4.65 0 76.5734 -0.00530976 -0.0995418 -2.84217e-14 -3.3 0 60.5938 -0.135531 -0.0662703 0.5 -2.15 -0.8 1.25701e-06 1.83145e-07 -1.46836e-06 -5.68434e-14 -7.75 -0.2 67.4927 7.66801 -10.5685 -2.84217e-14 -3.8 0 51.1883 -0.00663079 -0.0534694 -2.84217e-14 -3.4 -1.13687e-13 35.3322 -0.0246224 -0.0272774 0.75 -1.75 -1.85 1.25701e-06 1.83145e-07 -1.46836e-06 0 -7.15 -1 82.3869 -0.797009 -9.68644 -2.84217e-14 -3 0 54.6143 -0.0182966 -0.0996185 -2.84217e-14 -2.35 -1.13687e-13 37.8157 -0.0566347 -0.0506608 8 0 -5.68434e-14 9.49103 -24.4577 3.48301 0 -45 -1 -0.0208324 2.30503 3.27918 1.13687e-13 -41 -2 -2.88637 19.0449 -32.8357 0 -7.5 12.5 -9.3234e-09 -6.62149e-07 -2.56753e-10 0 -3.55271e-15 4 3.62268 -7.4855 16.3139 -8 0 0 9.12667 -4.6519 -16.6963 0 -45 -1 -0.00604351 6.59363 0.490351 0 -41 -2 -5.5664 -2.5935 -20.9795 0 -7.5 12.5 -7.95139e-16 -3.37934e-15 -1.27222e-14 1.13687e-13 0 4 5.60934 -1.08736 16.2373 
